<mxfile host="app.diagrams.net" modified="2021-03-25T10:20:33.163Z" agent="5.0 (Windows NT 10.0; Win64; x64) AppleWebKit/537.36 (KHTML, like Gecko) Chrome/88.0.4324.190 Safari/537.36" etag="rEdSb3-fkaz_3YjCZ3XC" version="14.4.2" type="github">
  <diagram id="oVQuuiq1E-Ry_h9An2Pa" name="第 1 页">
    <mxGraphModel dx="2243" dy="762" grid="1" gridSize="10" guides="1" tooltips="1" connect="1" arrows="1" fold="1" page="1" pageScale="1" pageWidth="827" pageHeight="1169" math="0" shadow="0">
      <root>
        <mxCell id="0" />
        <mxCell id="1" parent="0" />
        <mxCell id="myJG3aS-q8uGBaLZNTOv-22" style="edgeStyle=orthogonalEdgeStyle;rounded=0;orthogonalLoop=1;jettySize=auto;html=1;" edge="1" parent="1" source="myJG3aS-q8uGBaLZNTOv-21" target="myJG3aS-q8uGBaLZNTOv-4">
          <mxGeometry relative="1" as="geometry" />
        </mxCell>
        <mxCell id="myJG3aS-q8uGBaLZNTOv-35" style="edgeStyle=orthogonalEdgeStyle;rounded=0;orthogonalLoop=1;jettySize=auto;html=1;entryX=1;entryY=0.5;entryDx=0;entryDy=0;" edge="1" parent="1" source="myJG3aS-q8uGBaLZNTOv-21" target="myJG3aS-q8uGBaLZNTOv-24">
          <mxGeometry relative="1" as="geometry" />
        </mxCell>
        <mxCell id="myJG3aS-q8uGBaLZNTOv-21" value="" style="rounded=0;whiteSpace=wrap;html=1;dashed=1;" vertex="1" parent="1">
          <mxGeometry x="480" y="230" width="220" height="600" as="geometry" />
        </mxCell>
        <mxCell id="myJG3aS-q8uGBaLZNTOv-1" value="基础依赖&lt;br&gt;vue,vuex,vue-route,moment" style="rounded=1;whiteSpace=wrap;html=1;" vertex="1" parent="1">
          <mxGeometry x="525" y="260" width="130" height="240" as="geometry" />
        </mxCell>
        <mxCell id="myJG3aS-q8uGBaLZNTOv-2" value="业务依赖&lt;br&gt;login-util(登录方法), login-view(登录页面), menu(主应用菜单配置)" style="rounded=1;whiteSpace=wrap;html=1;" vertex="1" parent="1">
          <mxGeometry x="525" y="530" width="130" height="280" as="geometry" />
        </mxCell>
        <mxCell id="myJG3aS-q8uGBaLZNTOv-4" value="" style="rounded=1;whiteSpace=wrap;html=1;" vertex="1" parent="1">
          <mxGeometry x="-200" y="230" width="460" height="270" as="geometry" />
        </mxCell>
        <mxCell id="myJG3aS-q8uGBaLZNTOv-5" value="SubApp 司机管理" style="rounded=0;whiteSpace=wrap;html=1;dashed=1;" vertex="1" parent="1">
          <mxGeometry x="-170" y="255" width="120" height="60" as="geometry" />
        </mxCell>
        <mxCell id="myJG3aS-q8uGBaLZNTOv-6" value="SubApp" style="rounded=0;whiteSpace=wrap;html=1;dashed=1;" vertex="1" parent="1">
          <mxGeometry x="100" y="255" width="120" height="60" as="geometry" />
        </mxCell>
        <mxCell id="myJG3aS-q8uGBaLZNTOv-7" value="SubApp" style="rounded=0;whiteSpace=wrap;html=1;dashed=1;" vertex="1" parent="1">
          <mxGeometry x="-170" y="410" width="120" height="60" as="geometry" />
        </mxCell>
        <mxCell id="myJG3aS-q8uGBaLZNTOv-8" value="SubApp" style="rounded=0;whiteSpace=wrap;html=1;dashed=1;" vertex="1" parent="1">
          <mxGeometry x="100" y="410" width="120" height="60" as="geometry" />
        </mxCell>
        <mxCell id="myJG3aS-q8uGBaLZNTOv-17" style="edgeStyle=orthogonalEdgeStyle;rounded=0;orthogonalLoop=1;jettySize=auto;html=1;" edge="1" parent="1" source="myJG3aS-q8uGBaLZNTOv-16" target="myJG3aS-q8uGBaLZNTOv-6">
          <mxGeometry relative="1" as="geometry" />
        </mxCell>
        <mxCell id="myJG3aS-q8uGBaLZNTOv-18" style="edgeStyle=orthogonalEdgeStyle;rounded=0;orthogonalLoop=1;jettySize=auto;html=1;" edge="1" parent="1" source="myJG3aS-q8uGBaLZNTOv-16" target="myJG3aS-q8uGBaLZNTOv-5">
          <mxGeometry relative="1" as="geometry" />
        </mxCell>
        <mxCell id="myJG3aS-q8uGBaLZNTOv-19" style="edgeStyle=orthogonalEdgeStyle;rounded=0;orthogonalLoop=1;jettySize=auto;html=1;entryX=0.5;entryY=0;entryDx=0;entryDy=0;" edge="1" parent="1" source="myJG3aS-q8uGBaLZNTOv-16" target="myJG3aS-q8uGBaLZNTOv-8">
          <mxGeometry relative="1" as="geometry" />
        </mxCell>
        <mxCell id="myJG3aS-q8uGBaLZNTOv-20" style="edgeStyle=orthogonalEdgeStyle;rounded=0;orthogonalLoop=1;jettySize=auto;html=1;entryX=0.5;entryY=0;entryDx=0;entryDy=0;" edge="1" parent="1" source="myJG3aS-q8uGBaLZNTOv-16" target="myJG3aS-q8uGBaLZNTOv-7">
          <mxGeometry relative="1" as="geometry" />
        </mxCell>
        <mxCell id="myJG3aS-q8uGBaLZNTOv-16" value="MianApp" style="ellipse;whiteSpace=wrap;html=1;dashed=1;" vertex="1" parent="1">
          <mxGeometry x="-30" y="330" width="120" height="80" as="geometry" />
        </mxCell>
        <mxCell id="myJG3aS-q8uGBaLZNTOv-23" value="运营后台" style="text;html=1;strokeColor=none;fillColor=none;align=center;verticalAlign=middle;whiteSpace=wrap;rounded=0;dashed=1;" vertex="1" parent="1">
          <mxGeometry x="-10" y="250" width="80" height="20" as="geometry" />
        </mxCell>
        <mxCell id="myJG3aS-q8uGBaLZNTOv-24" value="" style="rounded=1;whiteSpace=wrap;html=1;" vertex="1" parent="1">
          <mxGeometry x="-190" y="570" width="460" height="270" as="geometry" />
        </mxCell>
        <mxCell id="myJG3aS-q8uGBaLZNTOv-25" value="SubApp 司机管理" style="rounded=0;whiteSpace=wrap;html=1;dashed=1;" vertex="1" parent="1">
          <mxGeometry x="-160" y="595" width="120" height="60" as="geometry" />
        </mxCell>
        <mxCell id="myJG3aS-q8uGBaLZNTOv-26" value="SubApp" style="rounded=0;whiteSpace=wrap;html=1;dashed=1;" vertex="1" parent="1">
          <mxGeometry x="110" y="595" width="120" height="60" as="geometry" />
        </mxCell>
        <mxCell id="myJG3aS-q8uGBaLZNTOv-27" value="SubApp" style="rounded=0;whiteSpace=wrap;html=1;dashed=1;" vertex="1" parent="1">
          <mxGeometry x="-160" y="750" width="120" height="60" as="geometry" />
        </mxCell>
        <mxCell id="myJG3aS-q8uGBaLZNTOv-28" value="SubApp" style="rounded=0;whiteSpace=wrap;html=1;dashed=1;" vertex="1" parent="1">
          <mxGeometry x="110" y="750" width="120" height="60" as="geometry" />
        </mxCell>
        <mxCell id="myJG3aS-q8uGBaLZNTOv-29" style="edgeStyle=orthogonalEdgeStyle;rounded=0;orthogonalLoop=1;jettySize=auto;html=1;" edge="1" parent="1" source="myJG3aS-q8uGBaLZNTOv-33" target="myJG3aS-q8uGBaLZNTOv-26">
          <mxGeometry relative="1" as="geometry" />
        </mxCell>
        <mxCell id="myJG3aS-q8uGBaLZNTOv-30" style="edgeStyle=orthogonalEdgeStyle;rounded=0;orthogonalLoop=1;jettySize=auto;html=1;" edge="1" parent="1" source="myJG3aS-q8uGBaLZNTOv-33" target="myJG3aS-q8uGBaLZNTOv-25">
          <mxGeometry relative="1" as="geometry" />
        </mxCell>
        <mxCell id="myJG3aS-q8uGBaLZNTOv-31" style="edgeStyle=orthogonalEdgeStyle;rounded=0;orthogonalLoop=1;jettySize=auto;html=1;entryX=0.5;entryY=0;entryDx=0;entryDy=0;" edge="1" parent="1" source="myJG3aS-q8uGBaLZNTOv-33" target="myJG3aS-q8uGBaLZNTOv-28">
          <mxGeometry relative="1" as="geometry" />
        </mxCell>
        <mxCell id="myJG3aS-q8uGBaLZNTOv-32" style="edgeStyle=orthogonalEdgeStyle;rounded=0;orthogonalLoop=1;jettySize=auto;html=1;entryX=0.5;entryY=0;entryDx=0;entryDy=0;" edge="1" parent="1" source="myJG3aS-q8uGBaLZNTOv-33" target="myJG3aS-q8uGBaLZNTOv-27">
          <mxGeometry relative="1" as="geometry" />
        </mxCell>
        <mxCell id="myJG3aS-q8uGBaLZNTOv-33" value="MianApp" style="ellipse;whiteSpace=wrap;html=1;dashed=1;" vertex="1" parent="1">
          <mxGeometry x="-20" y="670" width="120" height="80" as="geometry" />
        </mxCell>
        <mxCell id="myJG3aS-q8uGBaLZNTOv-34" value="运营商平台" style="text;html=1;strokeColor=none;fillColor=none;align=center;verticalAlign=middle;whiteSpace=wrap;rounded=0;dashed=1;" vertex="1" parent="1">
          <mxGeometry y="590" width="80" height="20" as="geometry" />
        </mxCell>
      </root>
    </mxGraphModel>
  </diagram>
</mxfile>
